HIERARCHY
ROOT hip
{
	OFFSET 0.000000 0.000000 0.000000 
	CHANNELS 6 Xposition Yposition Zposition Xrotation Zrotation Yrotation
	JOINT abdomen
	{
		OFFSET 0.000000 3.402643 0.000000 
		CHANNELS 3 Xrotation Zrotation Yrotation
		JOINT chest
		{
			OFFSET 0.000000 8.438565 -0.680529 
			CHANNELS 3 Xrotation Zrotation Yrotation
			JOINT neck
			{
				OFFSET 0.000000 10.207942 -0.272212 
				CHANNELS 3 Xrotation Zrotation Yrotation
				JOINT head
				{
					OFFSET 0.000000 3.130431 0.000000 
					CHANNELS 3 Xrotation Zrotation Yrotation
					End Site
					{
						OFFSET 0.000000 3.130435 0.000000 
					}
				}
			}
			JOINT lCollar
			{
				OFFSET 3.470700 6.669187 -0.816635 
				CHANNELS 3 Yrotation Zrotation Xrotation
				JOINT lShldr
				{
					OFFSET 3.198488 0.000000 0.000000 
					CHANNELS 3 Zrotation Yrotation Xrotation
					JOINT lForeArm
					{
						OFFSET 10.139888 0.000000 0.000000 
						CHANNELS 3 Yrotation Zrotation Xrotation
						JOINT lHand
						{
							OFFSET 8.370511 0.000000 0.000000 
							CHANNELS 3 Zrotation Yrotation Xrotation
							End Site
							{
								OFFSET 4.083176 0.000000 0.000000 
							}
						}
					}
				}
			}
			JOINT rCollar
			{
				OFFSET -3.470700 6.669187 -0.816635 
				CHANNELS 3 Yrotation Zrotation Xrotation
				JOINT rShldr
				{
					OFFSET -3.198488 0.000000 0.000000 
					CHANNELS 3 Zrotation Yrotation Xrotation
					JOINT rForeArm
					{
						OFFSET -10.139888 0.000000 0.000000 
						CHANNELS 3 Yrotation Zrotation Xrotation
						JOINT rHand
						{
							OFFSET -8.370511 0.000000 0.000000 
							CHANNELS 3 Zrotation Yrotation Xrotation
							End Site
							{
								OFFSET -4.083176 0.000000 0.000000 
							}
						}
					}
				}
			}
		}
	}
	JOINT lThigh
	{
		OFFSET 5.308129 -1.633274 1.361059 
		CHANNELS 3 Xrotation Zrotation Yrotation
		JOINT lShin
		{
			OFFSET -2.041588 -20.007561 0.000000 
			CHANNELS 3 Xrotation Zrotation Yrotation
			JOINT lFoot
			{
				OFFSET 0.000000 -19.190928 -1.224953 
				CHANNELS 3 Xrotation Yrotation Zrotation
				End Site
				{
					OFFSET 0.000000 -2.449906 4.627600 
				}
			}
		}
	}
	JOINT rThigh
	{
		OFFSET -5.308129 -1.633274 1.361059 
		CHANNELS 3 Xrotation Zrotation Yrotation
		JOINT rShin
		{
			OFFSET 2.041588 -20.007561 0.000000 
			CHANNELS 3 Xrotation Zrotation Yrotation
			JOINT rFoot
			{
				OFFSET 0.000000 -19.190928 -1.224953 
				CHANNELS 3 Xrotation Yrotation Zrotation
				End Site
				{
					OFFSET 0.000000 -2.449906 4.627600 
				}
			}
		}
	}
}
MOTION
Frames: 8
Frame Time: 0.033333
28.282452 43.774639 37.942215 -7.477876 -8.637975 -61.254509 -25.458981 0.000000 -0.009766 35.824646 2.624027 -0.617586 10.372680 -15.809873 27.621471 -10.049158 8.878588 23.954374 -5.704547 -13.706081 11.816587 -58.688148 -33.982452 16.822777 -63.409367 1.582401 -16.002729 13.109161 -38.164177 -4.418180 19.013983 7.851472 21.949453 74.446281 62.927399 62.312088 18.235203 -1.364691 -46.416615 -28.927053 51.898537 -13.775929 -10.975755 16.502083 9.336440 20.842522 4.833412 15.696692 8.337338 -0.555090 -16.597256 -5.799825 -13.628660 -6.486771 44.846375 -2.843622 -17.081804 -21.266870 -3.845822 15.283738 
28.264185 43.760403 37.941483 -7.263323 -8.264161 -60.357800 -25.458981 0.000000 -0.009766 36.061184 2.478923 -0.249384 10.203200 -15.236220 27.145950 -10.638146 8.376882 23.616779 -6.072580 -14.369035 11.779416 -58.114754 -33.827019 17.931240 -62.096458 2.046645 -18.510561 13.122428 -37.239628 -4.318916 19.844805 9.004869 22.170805 71.975655 62.476425 60.282349 17.056047 -1.171767 -46.987328 -26.945385 51.392612 -12.625500 -12.203485 16.712095 9.042658 21.649424 4.390044 14.856676 7.935922 -0.500461 -16.258894 -5.917359 -14.010947 -6.959409 45.013199 -2.257541 -17.224566 -21.453554 -3.881887 15.298757 
28.255762 43.739651 37.929111 -7.018435 -7.803151 -59.326511 -25.458981 0.000000 -0.009766 36.305202 2.382195 -0.094764 9.553981 -14.576580 26.822865 -11.068201 7.885923 23.368750 -6.227768 -14.516881 11.952232 -57.678146 -34.415901 18.803127 -61.141304 2.367404 -20.731773 13.256982 -36.419624 -4.284966 19.609650 9.474780 21.934175 71.348549 61.805195 60.207066 17.261099 -1.269196 -46.929680 -26.073860 50.370743 -11.904785 -13.679902 16.755016 8.528093 22.505707 4.100837 14.088245 7.578935 -0.455982 -15.970843 -6.131932 -14.586477 -7.743303 45.244728 -1.594410 -17.117334 -21.736162 -3.897814 15.237751 
28.242661 43.701000 37.898029 -6.776189 -7.448200 -58.317890 -25.458981 0.000000 -0.009766 36.753456 2.337246 -0.119244 8.681244 -13.746441 26.565258 -11.426144 7.113000 23.263084 -6.342526 -14.508714 12.212198 -57.365871 -34.801231 18.944593 -61.492085 2.507865 -21.560539 12.960404 -35.276745 -4.053006 19.209143 9.496279 21.796026 70.973106 61.399643 59.899845 17.997265 -1.638794 -46.483864 -25.207359 49.794861 -11.341231 -15.087637 16.825716 8.016500 23.402409 3.882295 13.338736 7.253884 -0.406848 -15.729752 -6.288577 -15.016401 -8.635677 45.587322 -1.106085 -16.947514 -22.047592 -3.924449 15.182247 
28.231878 43.660316 37.845509 -6.445628 -7.064891 -57.368023 -25.458981 0.000000 -0.009766 37.086197 2.420452 -0.232950 7.787134 -13.535752 26.496948 -12.103458 6.931661 23.115313 -6.067726 -14.546998 11.928850 -57.024273 -34.964222 19.457098 -62.131866 2.191393 -21.895357 13.683881 -34.368530 -4.209493 18.999090 9.292308 21.901506 70.422623 61.168846 59.313580 19.173317 -2.202284 -46.003216 -24.976997 49.134743 -11.063965 -16.571203 16.971272 7.696237 24.252586 3.749250 12.388656 6.997511 -0.364064 -15.506460 -6.590907 -15.415377 -9.397955 45.997692 -0.490832 -16.797512 -22.376919 -3.950006 15.058929 
28.226063 43.624111 37.786026 -6.106562 -6.719819 -56.480385 -25.458981 0.000000 -0.009766 37.459476 2.553209 -0.318476 7.065394 -13.316066 26.542967 -12.621954 6.654054 23.145077 -5.896884 -14.472911 11.626594 -56.685474 -35.021976 19.731068 -63.131123 1.784839 -22.123695 13.686214 -33.648384 -4.130134 18.717777 9.030333 21.826248 69.761551 60.914879 58.526218 20.330456 -2.682967 -45.005234 -25.271740 48.965637 -11.159611 -17.923868 17.141462 7.389350 24.967062 3.539926 11.539292 6.785226 -0.338412 -15.254926 -6.903761 -15.700513 -9.841419 46.374260 0.184687 -16.922068 -22.640114 -3.994165 15.002169 
28.205030 43.596039 37.717434 -5.827265 -6.383135 -55.629997 -25.458981 0.000000 -0.009766 37.662342 2.561399 -0.495003 7.095451 -13.059345 26.451244 -13.452101 6.168864 23.224533 -5.866999 -14.634540 11.541258 -56.027935 -35.274090 19.764151 -63.999878 1.496064 -21.778761 14.272028 -32.888821 -4.239876 18.597792 8.892296 21.967899 68.548912 60.618843 57.037411 21.729900 -3.203130 -44.154408 -25.271978 48.898209 -11.145058 -19.067698 17.377663 7.150343 25.458757 3.114691 10.692776 6.671113 -0.317412 -14.907552 -7.157366 -16.021227 -10.297429 46.702522 0.837540 -16.993629 -22.929367 -3.994776 14.871035 
28.165199 43.556168 37.681183 -5.658206 -6.200350 -54.846317 -25.458981 0.000000 -0.009766 38.033905 2.601817 -0.542538 7.102842 -12.819607 26.252312 -14.260293 5.577331 23.215061 -5.850913 -14.589805 11.627696 -55.642227 -35.880611 19.980127 -64.681335 1.297902 -21.669909 14.619658 -32.406044 -4.294646 18.155691 8.601323 21.874805 67.671219 60.099689 55.824593 23.508257 -3.652531 -42.926914 -25.757132 48.603893 -11.300038 -20.002987 17.482954 6.948293 26.056740 2.928931 9.913358 6.434114 -0.312991 -14.683406 -7.108843 -16.442511 -11.141050 46.998566 1.307531 -16.653465 -23.260931 -4.016148 14.715680 
